<?xml version="1.0" encoding="UTF-8"?>
<svg width="58px" height="58px" viewBox="0 0 58 58" version="1.1" xmlns="http://www.w3.org/2000/svg" xmlns:xlink="http://www.w3.org/1999/xlink">
    <!-- Generator: Sketch 52.4 (67378) - http://www.bohemiancoding.com/sketch -->
    <title>ic_av_timer</title>
    <desc>Created with Sketch.</desc>
    <defs>
        <path d="M34.8333333,53.8333333 C34.8333333,55.575 36.2583333,57 38,57 C39.7416667,57 41.1666667,55.575 41.1666667,53.8333333 C41.1666667,52.0916667 39.7416667,50.6666667 38,50.6666667 C36.2583333,50.6666667 34.8333333,52.0916667 34.8333333,53.8333333 L34.8333333,53.8333333 Z M34.8333333,9.5 L34.8333333,22.1666667 L41.1666667,22.1666667 L41.1666667,16.0866667 C51.9016667,17.6383333 60.1666667,26.8216667 60.1666667,38 C60.1666667,50.255 50.255,60.1666667 38,60.1666667 C25.745,60.1666667 15.8333333,50.255 15.8333333,38 C15.8333333,32.68 17.7016667,27.8033333 20.8366667,24.0033333 L38,41.1666667 L42.465,36.7016667 L20.9316667,15.1683333 L20.9316667,15.2316667 C13.9966667,20.425 9.5,28.6583333 9.5,38 C9.5,53.7383333 22.23,66.5 38,66.5 C53.7383333,66.5 66.5,53.7383333 66.5,38 C66.5,22.2616667 53.7383333,9.5 38,9.5 L34.8333333,9.5 L34.8333333,9.5 Z M57,38 C57,36.2583333 55.575,34.8333333 53.8333333,34.8333333 C52.0916667,34.8333333 50.6666667,36.2583333 50.6666667,38 C50.6666667,39.7416667 52.0916667,41.1666667 53.8333333,41.1666667 C55.575,41.1666667 57,39.7416667 57,38 L57,38 Z M19,38 C19,39.7416667 20.425,41.1666667 22.1666667,41.1666667 C23.9083333,41.1666667 25.3333333,39.7416667 25.3333333,38 C25.3333333,36.2583333 23.9083333,34.8333333 22.1666667,34.8333333 C20.425,34.8333333 19,36.2583333 19,38 L19,38 Z" id="path-1"></path>
        <rect id="path-3" x="0" y="0" width="158" height="158"></rect>
    </defs>
    <g id="Page-1" stroke="none" stroke-width="1" fill="none" fill-rule="evenodd">
        <g id="ic_av_timer" transform="translate(-9.000000, -9.000000)">
            <mask id="mask-2" fill="white">
                <use xlink:href="#path-1"></use>
            </mask>
            <g id="Mask"></g>
            <g id="Colors/Black" mask="url(#mask-2)">
                <g transform="translate(-41.166667, -41.166667)">
                    <mask id="mask-4" fill="white">
                        <use xlink:href="#path-3"></use>
                    </mask>
                    <use id="Black" stroke="none" fill="#000000" fill-rule="evenodd" xlink:href="#path-3"></use>
                </g>
            </g>
        </g>
    </g>
</svg>